<?xml version="1.0" encoding="UTF-8" standalone="no"?><!DOCTYPE svg PUBLIC "-//W3C//DTD SVG 1.1//EN" "http://www.w3.org/Graphics/SVG/1.1/DTD/svg11.dtd"><svg width="100%" height="100%" viewBox="0 0 1119 140" version="1.1" xmlns="http://www.w3.org/2000/svg" xmlns:xlink="http://www.w3.org/1999/xlink" xml:space="preserve" xmlns:serif="http://www.serif.com/" style="fill-rule:evenodd;clip-rule:evenodd;stroke-linejoin:round;stroke-miterlimit:2;"><rect id="Artboard1" x="0" y="0" width="1118.88" height="139.387" style="fill:none;"/><g><path d="M21.429,119.623l0,-105.03l9.449,0l-0,96.021l40.21,-0l-0,9.009l-49.659,-0Z" style="fill:#fff;fill-rule:nonzero;"/><path d="M243.251,95.306c-0,3.565 -0.672,6.909 -2.014,10.034c-1.343,3.125 -3.186,5.86 -5.53,8.204c-2.344,2.343 -5.078,4.187 -8.203,5.529c-3.125,1.343 -6.47,2.015 -10.034,2.015l-7.471,-0c-3.565,-0 -6.922,-0.672 -10.071,-2.015c-3.149,-1.342 -5.896,-3.186 -8.24,-5.529c-2.343,-2.344 -4.187,-5.079 -5.53,-8.204c-1.342,-3.125 -2.014,-6.469 -2.014,-10.034l0,-80.713l9.449,0l-0,80.713c-0,2.344 0.439,4.529 1.318,6.555c0.879,2.027 2.087,3.809 3.625,5.347c1.539,1.538 3.321,2.747 5.347,3.626c2.026,0.879 4.212,1.318 6.555,1.318l6.592,0c2.344,0 4.529,-0.439 6.555,-1.318c2.027,-0.879 3.797,-2.088 5.31,-3.626c1.514,-1.538 2.71,-3.32 3.589,-5.347c0.879,-2.026 1.319,-4.211 1.319,-6.555l-0,-80.713l9.448,0l-0,80.713Z" style="fill:#fff;fill-rule:nonzero;"/><path d="M334.935,119.623l-43.798,-76.465l-0.879,-4.541l-0,81.006l-9.449,-0l0,-105.03l4.908,0l43.798,76.538l0.953,4.468l-0,-81.006l9.448,0l-0,105.03l-4.981,-0Z" style="fill:#fff;fill-rule:nonzero;"/><path d="M436.508,95.306c-0,3.565 -0.672,6.909 -2.015,10.034c-1.342,3.125 -3.186,5.86 -5.529,8.204c-2.344,2.343 -5.078,4.187 -8.203,5.529c-3.125,1.343 -6.47,2.015 -10.035,2.015l-7.47,-0c-3.565,-0 -6.922,-0.672 -10.071,-2.015c-3.15,-1.342 -5.896,-3.186 -8.24,-5.529c-2.344,-2.344 -4.187,-5.079 -5.53,-8.204c-1.342,-3.125 -2.014,-6.469 -2.014,-10.034l0,-56.396c0,-3.565 0.672,-6.909 2.014,-10.034c1.343,-3.125 3.186,-5.86 5.53,-8.203c2.344,-2.344 5.09,-4.187 8.24,-5.53c3.149,-1.343 6.506,-2.014 10.071,-2.014l7.47,-0c3.565,-0 6.91,0.671 10.035,2.014c3.125,1.343 5.859,3.186 8.203,5.53c2.343,2.343 4.187,5.078 5.529,8.203c1.343,3.125 2.015,6.469 2.015,10.034l-0,4.248l-9.449,1.465l0,-5.713c0,-2.344 -0.439,-4.529 -1.318,-6.555c-0.879,-2.027 -2.075,-3.797 -3.589,-5.31c-1.514,-1.514 -3.284,-2.71 -5.31,-3.589c-2.026,-0.879 -4.211,-1.319 -6.555,-1.319l-6.592,0c-2.344,0 -4.529,0.44 -6.555,1.319c-2.026,0.879 -3.809,2.075 -5.347,3.589c-1.538,1.513 -2.746,3.283 -3.625,5.31c-0.879,2.026 -1.319,4.211 -1.319,6.555l0,56.396c0,2.344 0.44,4.529 1.319,6.555c0.879,2.027 2.087,3.809 3.625,5.347c1.538,1.538 3.321,2.747 5.347,3.626c2.026,0.879 4.211,1.318 6.555,1.318l6.592,0c2.344,0 4.529,-0.439 6.555,-1.318c2.026,-0.879 3.796,-2.088 5.31,-3.626c1.514,-1.538 2.71,-3.32 3.589,-5.347c0.879,-2.026 1.318,-4.211 1.318,-6.555l0,-5.713l9.449,1.538l-0,4.175Z" style="fill:#fff;fill-rule:nonzero;"/><path d="M522.186,119.623l0,-47.974l-40.21,0l0,47.974l-9.448,-0l0,-105.03l9.448,0l0,48.047l40.21,0l0,-48.047l9.449,0l-0,105.03l-9.449,-0Z" style="fill:#fff;fill-rule:nonzero;"/><path d="M629.603,23.602l0,39.038l40.21,0l0,9.009l-40.21,0l0,47.974l-9.448,-0l0,-105.03l59.107,0l-0,9.009l-49.659,0Z" style="fill:#fff;fill-rule:nonzero;"/><rect x="709.276" y="14.593" width="9.448" height="105.029" style="fill:#fff;fill-rule:nonzero;"/><path d="M811.874,119.623l-43.799,-76.465l-0.879,-4.541l0,81.006l-9.448,-0l-0,-105.03l4.907,0l43.799,76.538l0.952,4.468l0,-81.006l9.448,0l0,105.03l-4.98,-0Z" style="fill:#fff;fill-rule:nonzero;"/><path d="M914.984,93.841c0,3.565 -0.671,6.91 -2.014,10.035c-1.343,3.125 -3.186,5.859 -5.53,8.203c-2.344,2.344 -5.09,4.187 -8.24,5.53c-3.149,1.342 -6.506,2.014 -10.07,2.014l-33.252,-0l-0,-105.03l33.252,0c3.564,0 6.921,0.672 10.07,2.015c3.15,1.342 5.896,3.186 8.24,5.529c2.344,2.344 4.187,5.091 5.53,8.24c1.343,3.15 2.014,6.506 2.014,10.071l0,53.393Zm-9.448,-53.393c-0,-2.344 -0.44,-4.529 -1.318,-6.555c-0.879,-2.027 -2.088,-3.809 -3.626,-5.347c-1.538,-1.538 -3.32,-2.747 -5.347,-3.625c-2.026,-0.879 -4.211,-1.319 -6.555,-1.319l-23.364,0l-0,87.012l23.364,-0c2.344,-0 4.529,-0.44 6.555,-1.318c2.027,-0.879 3.809,-2.076 5.347,-3.589c1.538,-1.514 2.747,-3.284 3.626,-5.31c0.878,-2.027 1.318,-4.212 1.318,-6.556l-0,-53.393Z" style="fill:#fff;fill-rule:nonzero;"/><path d="M952.47,119.623l-0,-105.03l59.106,0l-0,9.009l-49.658,0l-0,39.038l40.21,0l-0,9.009l-40.21,0l-0,38.965l49.658,-0l-0,9.009l-59.106,-0Z" style="fill:#fff;fill-rule:nonzero;"/><path d="M1093.96,119.623l-28.491,-44.825l-12.964,0l-0,44.825l-9.449,-0l0,-105.03l33.326,0c3.564,0 6.909,0.672 10.034,2.015c3.125,1.342 5.859,3.186 8.203,5.529c2.344,2.344 4.187,5.091 5.53,8.24c1.343,3.15 2.014,6.506 2.014,10.071l-0,8.496c-0,3.564 -0.671,6.921 -2.014,10.071c-1.343,3.149 -3.186,5.896 -5.53,8.24c-2.344,2.343 -5.078,4.187 -8.203,5.529c-3.125,1.343 -6.47,2.014 -10.034,2.014l28.491,44.825l-10.913,-0Zm-1.245,-79.175c-0,-2.344 -0.44,-4.529 -1.319,-6.555c-0.879,-2.027 -2.075,-3.809 -3.589,-5.347c-1.513,-1.538 -3.283,-2.747 -5.31,-3.625c-2.026,-0.879 -4.211,-1.319 -6.555,-1.319l-23.437,0l-0,42.188l23.437,-0c2.344,-0 4.529,-0.44 6.555,-1.319c2.027,-0.879 3.797,-2.087 5.31,-3.625c1.514,-1.538 2.71,-3.32 3.589,-5.347c0.879,-2.026 1.319,-4.211 1.319,-6.555l-0,-8.496Z" style="fill:#fff;fill-rule:nonzero;"/><path d="M107.244,95.197l-6.874,24.426l-9.815,-0l30.762,-105.03l4.981,0l30.908,105.03l-9.741,-0l-6.958,-24.462l0.201,0l-0,0.219c0.645,-0.899 1.025,-2 1.025,-3.19c0,-3.024 -2.455,-5.479 -5.478,-5.479c-1.158,0 -2.233,0.36 -3.118,0.975c-0.194,-1.128 -1.178,-1.987 -2.361,-1.987c-0.293,-0 -0.574,0.052 -0.834,0.149c-0.04,-0.394 -0.374,-0.703 -0.779,-0.703c-0.278,0 -0.523,0.147 -0.662,0.366c-1.382,-3.113 -2.336,-6.322 -2.936,-8.707l4.356,0l6.036,6.036l-0,-12.071l-6.036,-6.037l0,-18.107l-6.036,-12.072l-6.044,12.072l-0,18.107l-6.036,6.037l-0,12.071l6.036,-6.036l4.186,0c-0.586,2.259 -1.498,5.256 -2.803,8.212c-0.114,-0.064 -0.245,-0.1 -0.385,-0.1c-0.432,-0 -0.783,0.35 -0.783,0.783c0,0.042 0.004,0.084 0.01,0.124c-0.24,-0.081 -0.497,-0.124 -0.764,-0.124c-1.183,-0 -2.167,0.859 -2.361,1.987c-0.885,-0.615 -1.959,-0.975 -3.118,-0.975c-3.023,0 -5.478,2.455 -5.478,5.479c-0,1.11 0.331,2.143 0.899,3.007Z" style="fill:#fff;fill-rule:nonzero;"/></g></svg>